{"title":"Faust.2011.DVDRip.AC3.HORiZON-ArtSubs","uid":6984026,"size":2107582768,"categoryP":"video","categoryS":"movies","magnet":"?xt=urn:btih:8115e8d2565e35c039da34334e6b37ce41cc7d10&amp;dn=Faust.2011.DVDRip.AC3.HORiZON-ArtSubs&amp;tr=udp%3A%2F%2Ftracker.openbittorrent.com%3A80&amp;tr=udp%3A%2F%2Fopen.demonii.com%3A1337&amp;tr=udp%3A%2F%2Ftracker.coppersurfer.tk%3A6969&amp;tr=udp%3A%2F%2Fexodus.desync.com%3A6969","seeders":14,"leechers":1,"uploader":"lletaif","files":3,"time":1327506774,"description":"Title: Faust (2011)\n\nContry: Germany/Russia\n\nDirector: Aleksandr Sokurov\n\nWriters: Yuri Arabov (book), Aleksandr Sokurov (screenplay)\n\nStars: Johannes Zeiler, Anton Adasinsky and Isolda Dychauk\n\nLanguage: German\n\nSubtitles: Italian\n\nPlot: A version of the German legend in which a man who sells his soul to the devil in exchange for knowledge. Won Golden Lion in Venice Film Festival 2011.\n\nRip Specs:\n\n\nGeneral\nComplete name                    : Faust.2011.DVDRip.AC3.HORiZON-ArtSubs\nFormat                           : AVI\nFormat/Info                      : Audio Video Interleave\nFile size                        : 1.95 GiB\nDuration                         : 2h 13mn\nOverall bit rate                 : 2 086 Kbps\nWriting application              : FairUse Wizard - http://fairusewizard.com\nWriting library                  : The best and REALLY easy backup tool\n\nVideo\nID                               : 0\nFormat                           : MPEG-4 Visual\nFormat profile                   : Advanced Simple@L5\nFormat settings, BVOP            : 1\nFormat settings, QPel            : No\nFormat settings, GMC             : No warppoints\nFormat settings, Matrix          : Default (MPEG)\nMuxing mode                      : Packed bitstream\nCodec ID                         : XVID\nCodec ID/Hint                    : XviD\nDuration                         : 2h 13mn\nBit rate                         : 1 629 Kbps\nWidth                            : 656 pixels\nHeight                           : 480 pixels\nDisplay aspect ratio             : 4:3\nFrame rate                       : 25.000 fps\nColor space                      : YUV\nChroma subsampling               : 4:2:0\nBit depth                        : 8 bits\nScan type                        : Progressive\nCompression mode                 : Lossy\nBits/(Pixel*Frame)               : 0.207\nStream size                      : 1.52 GiB (78%)\nWriting library                  : XviD 1.2.0.dev47 (UTC 2006-11-01)\n\nAudio\nID                               : 1\nFormat                           : AC-3\nFormat/Info                      : Audio Coding 3\nMode extension                   : CM (complete main)\nCodec ID                         : 2000\nDuration                         : 2h 13mn\nBit rate mode                    : Constant\nBit rate                         : 448 Kbps\nChannel(s)                       : 6 channels\nChannel positions                : Front: L C R, Side: L R, LFE\nSampling rate                    : 48.0 KHz\nBit depth                        : 16 bits\nCompression mode                 : Lossy\nStream size                      : 429 MiB (21%)\nAlignment                        : Split accross interleaves\nInterleave, duration             : 40 ms (1.00 video frame)\nInterleave, preload duration     : 500 ms\n","torrent":{"xt":"urn:btih:8115e8d2565e35c039da34334e6b37ce41cc7d10","amp;dn":"Faust.2011.DVDRip.AC3.HORiZON-ArtSubs","amp;tr":["udp%3A%2F%2Ftracker.openbittorrent.com%3A80","udp%3A%2F%2Fopen.demonii.com%3A1337","udp%3A%2F%2Ftracker.coppersurfer.tk%3A6969","udp%3A%2F%2Fexodus.desync.com%3A6969"],"infoHash":"8115e8d2565e35c039da34334e6b37ce41cc7d10","infoHashBuffer":{"type":"Buffer","data":[129,21,232,210,86,94,53,192,57,218,52,51,78,107,55,206,65,204,125,16]},"announce":[],"urlList":[]}}